{"title":"BBC Symphony - 1. Genesis and Genius","uid":6799063,"size":1133661798,"categoryP":"video","categoryS":"tv_shows","magnet":"?xt=urn:btih:68d553c26dbab54d604b310aee03ff8c4cfe2280&amp;dn=BBC+Symphony+-+1.+Genesis+and+Genius&amp;tr=udp%3A%2F%2Ftracker.openbittorrent.com%3A80&amp;tr=udp%3A%2F%2Fopen.demonii.com%3A1337&amp;tr=udp%3A%2F%2Ftracker.coppersurfer.tk%3A6969&amp;tr=udp%3A%2F%2Fexodus.desync.com%3A6969","seeders":1,"leechers":0,"uploader":null,"files":3,"time":1320589822,"description":"Symphony - 1. Genesis and Genius\n\t\nSimon Russell Beale presents a radical reappraisal of the place of the symphony in the modern world and explores the surprising way in which it has shaped our history and identity.   The first episode begins amidst the turmoil of the French Revolution with the arrival in England of Joseph Haydn, dubbed the Father of the Symphony. It continues with Mozart, the genius who wrote his first symphony at the age of eight, and Beethoven, the revolutionary who created the idea of the artist as hero and whose Eroica Symphony changed music for ever.   The music is performed by the Orchestra of the Age of Enlightenment, conducted by Sir Mark Elder.\n\nFormat profile                           : Base Media\nCodec ID                                 : isom\nFile size                                : 1.06 GiB\nDuration                                 : 59mn 9s\nOverall bit rate                         : 2 555 Kbps\nWriting application                      : Lavf53.13.0\n\nVideo\nID                                       : 1\nFormat                                   : AVC\nFormat/Info                              : Advanced Video Codec\nFormat profile                           : &lt;a class=&quot;__cf_email__&quot; href=&quot;/cdn-cgi/l/email-protection&quot; data-cfemail=&quot;0f476668674f433b213e&quot;&gt;[email&amp;#160;protected]&lt;/a&gt;&lt;script cf-hash='f9e31' type=&quot;text/javascript&quot;&gt;\n/* &lt;![CDATA[ */!function(){try{var t=&quot;currentScript&quot;in document?document.currentScript:function(){for(var t=document.getElementsByTagName(&quot;script&quot;),e=t.length;e--;)if(t[e].getAttribute(&quot;cf-hash&quot;))return t[e]}();if(t&amp;&amp;t.previousSibling){var e,r,n,i,c=t.previousSibling,a=c.getAttribute(&quot;data-cfemail&quot;);if(a){for(e=&quot;&quot;,r=parseInt(a.substr(0,2),16),n=2;a.length-n;n+=2)i=parseInt(a.substr(n,2),16)^r,e+=String.fromCharCode(i);e=document.createTextNode(e),c.parentNode.replaceChild(e,c)}}}catch(u){}}();/* ]]&gt; */&lt;/script&gt;\nFormat settings, CABAC                   : Yes\nFormat settings, ReFrames                : 6 frames\nCodec ID                                 : avc1\nCodec ID/Info                            : Advanced Video Coding\nDuration                                 : 59mn 9s\nBit rate mode                            : Variable\nBit rate                                 : 2 455 Kbps\nMaximum bit rate                         : 3 500 Kbps\nWidth                                    : 1 280 pixels\nHeight                                   : 720 pixels\nDisplay aspect ratio                     : 16:9\nFrame rate mode                          : Constant\nFrame rate                               : 25.000 fps\nStandard                                 : PAL\nColor space                              : YUV\nChroma subsampling                       : 4:2:0\nBit depth                                : 8 bits\nScan type                                : Progressive\nBits/(Pixel*Frame)                       : 0.107\nStream size                              : 1.01 GiB (96%)\n\nAudio\nID                                       : 2\nFormat                                   : AAC\nFormat/Info                              : Advanced Audio Codec\nFormat profile                           : HE-AAC / LC\nCodec ID                                 : 40\nDuration                                 : 59mn 9s\nBit rate mode                            : Constant\nBit rate                                 : 96.0 Kbps\nChannel(s)                               : 2 channels\nChannel positions                        : Front: L R\nSampling rate                            : 48.0 KHz / 24.0 KHz\nCompression mode                         : Lossy\nStream size                              : 40.1 MiB (4%)\n\n\t","torrent":{"xt":"urn:btih:68d553c26dbab54d604b310aee03ff8c4cfe2280","amp;dn":"BBC+Symphony+-+1.+Genesis+and+Genius","amp;tr":["udp%3A%2F%2Ftracker.openbittorrent.com%3A80","udp%3A%2F%2Fopen.demonii.com%3A1337","udp%3A%2F%2Ftracker.coppersurfer.tk%3A6969","udp%3A%2F%2Fexodus.desync.com%3A6969"],"infoHash":"68d553c26dbab54d604b310aee03ff8c4cfe2280","infoHashBuffer":{"type":"Buffer","data":[104,213,83,194,109,186,181,77,96,75,49,10,238,3,255,140,76,254,34,128]},"announce":[],"urlList":[]}}